<?xml version="1.0" standalone="no"?>
<!DOCTYPE svg PUBLIC "-//W3C//DTD SVG 20010904//EN"
 "http://www.w3.org/TR/2001/REC-SVG-20010904/DTD/svg10.dtd">
<svg version="1.0" xmlns="http://www.w3.org/2000/svg"
 width="274.000000pt" height="184.000000pt" viewBox="0 0 274.000000 184.000000"
 preserveAspectRatio="xMidYMid meet">

<g transform="translate(0.000000,184.000000) scale(0.100000,-0.100000)"
fill="#00d8ff" stroke="none">
<path d="M1099 1653 c-1 -27 -2 -61 -3 -78 -1 -25 3 -30 26 -33 23 -3 27 1 30
25 4 39 42 40 46 1 3 -22 9 -28 27 -28 22 0 24 4 27 80 l3 80 -27 0 c-23 0
-28 -4 -28 -25 0 -20 -5 -25 -25 -25 -20 0 -25 5 -25 25 0 20 -5 25 -25 25
-23 0 -25 -4 -26 -47z"/>
<path d="M1280 1676 c0 -18 6 -25 23 -28 17 -2 22 -10 23 -33 1 -70 3 -75 29
-75 24 0 25 3 25 55 0 52 1 55 25 55 20 0 25 5 25 25 0 24 -2 25 -75 25 -73 0
-75 -1 -75 -24z"/>
<path d="M1450 1620 l0 -80 31 0 c30 0 31 2 27 35 -5 40 1 44 21 13 l13 -21
19 24 19 24 0 -38 c0 -36 2 -38 28 -35 27 3 27 4 30 81 l3 77 -36 0 c-19 0
-35 -4 -35 -8 0 -5 -6 -17 -14 -27 -14 -19 -15 -19 -27 8 -10 22 -19 27 -46
27 l-33 0 0 -80z"/>
<path d="M1660 1620 l0 -81 67 3 c60 3 66 5 69 26 4 22 0 25 -46 26 -23 1 -25
5 -28 54 -3 50 -4 52 -33 52 l-29 0 0 -80z"/>
<path d="M1024 1423 c3 -21 11 -96 16 -167 6 -71 12 -134 13 -140 1 -8 -103
-12 -355 -14 -276 -2 -358 -5 -358 -15 -1 -42 74 -843 79 -849 8 -10 317 -98
341 -98 23 0 332 88 341 98 5 4 14 81 21 172 12 155 14 165 33 164 11 -1 82
-17 157 -37 l137 -35 168 45 c92 25 169 47 171 48 2 2 16 145 32 345 14 177
39 435 46 483 l6 37 -427 0 -427 0 6 -37z m751 -43 c-3 -5 -26 -10 -51 -10
-25 0 -43 -3 -40 -8 2 -4 -35 -3 -82 3 l-87 10 125 5 c69 3 129 7 133 8 5 1 5
-2 2 -8z m-45 -30 c-8 -5 -11 -10 -7 -10 5 0 2 -6 -5 -13 -10 -9 -45 -11 -138
-6 -144 6 -140 10 14 12 77 1 111 6 114 15 2 6 11 12 20 12 15 0 15 -2 2 -10z
m43 -68 c-5 -80 -10 -95 -23 -87 -5 3 -10 2 -10 -4 0 -5 6 -12 13 -14 8 -4 6
-6 -4 -6 -13 -1 -15 10 -14 59 1 34 -2 63 -7 66 -14 9 -9 22 13 29 12 4 18 13
15 20 -3 9 0 12 8 9 10 -4 12 -22 9 -72z m-76 18 l29 -11 -9 -61 -10 -61 -204
6 -204 6 3 -47 3 -47 198 -3 c127 -1 197 1 197 8 0 5 -10 12 -22 14 -13 3 -32
7 -43 9 -15 4 -13 5 7 6 35 1 78 -18 78 -36 0 -7 -4 -13 -9 -13 -8 0 -26 -145
-35 -278 -2 -29 -6 -55 -9 -58 -3 -3 -34 -12 -68 -20 -35 -8 -83 -21 -106 -29
-39 -14 -48 -13 -130 11 -48 15 -99 29 -113 33 -27 8 -36 36 -42 131 l-3 54
54 1 55 0 11 -44 c10 -43 13 -45 60 -58 28 -7 61 -11 75 -7 84 18 100 25 100
44 0 13 -5 18 -15 14 -8 -4 -12 -10 -9 -15 3 -5 -9 -6 -27 -2 -23 4 -30 3 -25
-5 4 -7 1 -12 -7 -12 -8 0 -17 10 -21 23 -11 41 -7 49 16 27 23 -21 51 -29 30
-8 -7 7 -12 29 -12 50 0 21 -4 38 -10 38 -5 0 -10 -5 -10 -12 0 -9 -3 -9 -12
0 -8 8 -52 12 -134 12 l-122 0 -6 38 c-3 20 -8 73 -11 117 -3 44 -8 101 -11
128 l-6 47 134 1 c73 0 142 4 153 9 28 12 206 12 242 0z m-13 -155 c-4 -10
-20 -15 -45 -15 -53 0 -50 18 4 23 23 2 43 4 44 5 1 1 0 -5 -3 -13z m31 -4
c-4 -13 0 -20 13 -23 14 -4 21 -17 24 -41 3 -29 1 -34 -9 -25 -10 8 -13 5 -13
-13 -1 -22 -2 -22 -11 -6 -8 14 -7 22 8 33 17 13 17 15 -10 39 -23 21 -26 27
-15 40 17 19 20 19 13 -4z m-126 -7 c2 -2 -25 -4 -60 -4 -44 0 -59 3 -49 10
13 8 98 3 109 -6z m-534 -114 c3 -5 10 -72 16 -149 9 -131 -2 -344 -27 -541
l-6 -45 -116 -33 c-65 -18 -127 -35 -139 -39 -22 -5 -23 -2 -23 50 l0 56 -72
21 c-40 12 -90 26 -110 32 -41 12 -45 22 -50 128 l-3 55 55 0 55 0 3 -42 c3
-41 4 -41 55 -54 29 -8 56 -14 60 -14 5 0 10 35 10 78 l2 77 -61 0 -61 0 -7
38 c-13 82 -13 82 59 82 l65 0 0 50 0 50 -129 0 -128 0 -7 31 c-3 17 -6 44 -6
60 0 24 4 28 28 27 15 0 75 0 135 1 l107 1 0 45 0 45 144 0 c82 0 147 -4 151
-10z m663 -107 c-2 -18 0 -33 4 -33 4 0 7 -37 6 -82 -1 -71 -2 -77 -8 -38 -6
40 -7 41 -8 12 -1 -18 -6 -31 -11 -28 -10 6 -7 157 3 175 4 6 5 26 2 44 -6 30
-5 30 5 7 6 -14 9 -40 7 -57z m-30 -234 c-2 -29 -7 -34 -28 -34 -46 -1 -51 17
-17 53 35 37 50 30 45 -19z m-103 2 c-19 -7 -19 -8 0 -18 17 -10 17 -11 -3
-17 -12 -4 -31 -4 -42 -1 -11 4 -20 2 -20 -4 0 -6 -9 -11 -21 -11 -12 0 -18 4
-13 11 3 6 1 15 -6 19 -14 9 54 28 100 28 22 1 23 0 5 -7z m21 -56 c-10 -8
-24 -11 -29 -8 -6 4 -2 10 9 14 31 12 40 9 20 -6z m-76 -15 c0 -5 -8 -10 -17
-10 -15 0 -16 2 -3 10 19 12 20 12 20 0z m-60 -20 c-19 -13 -30 -13 -30 0 0 6
10 10 23 10 18 0 19 -2 7 -10z"/>
<path d="M1740 1310 c0 -5 5 -10 10 -10 6 0 10 5 10 10 0 6 -4 10 -10 10 -5 0
-10 -4 -10 -10z"/>
<path d="M1753 1240 c0 -25 2 -35 4 -22 2 12 2 32 0 45 -2 12 -4 2 -4 -23z"/>
<path d="M1534 920 l-8 -45 -7 35 -7 35 1 -34 c3 -60 40 -50 51 14 4 25 3 35
-2 26 -8 -11 -10 -11 -15 0 -3 8 -9 -6 -13 -31z"/>
<path d="M1525 660 c11 -5 29 -9 40 -9 l20 0 -20 9 c-11 5 -29 9 -40 9 l-20 0
20 -9z"/>
<path d="M517 1334 c-4 -4 -7 -40 -7 -81 l0 -73 70 0 c63 0 70 2 70 20 0 17
-7 20 -40 20 -39 0 -40 1 -40 34 0 33 2 35 38 38 29 2 37 7 37 23 0 17 -8 20
-60 23 -34 2 -64 0 -68 -4z"/>
<path d="M677 1333 c-13 -13 -6 -28 30 -68 l36 -40 -37 -3 c-28 -3 -36 -8 -36
-23 0 -17 7 -19 80 -19 95 0 102 12 43 72 l-37 38 32 0 c27 0 32 4 32 25 0 24
-2 25 -68 25 -38 0 -72 -3 -75 -7z"/>
<path d="M854 1325 c-3 -8 10 -34 31 -60 l37 -45 -36 0 c-30 0 -36 -4 -36 -20
0 -19 5 -21 77 -18 47 2 78 7 80 15 2 6 -12 30 -33 52 l-36 41 31 0 c26 0 31
4 31 25 0 24 -2 25 -70 25 -53 0 -72 -4 -76 -15z"/>
<path d="M1950 552 c0 -102 -4 -152 -12 -160 -18 -18 -53 -14 -73 8 -18 20
-19 20 -73 -16 -2 -1 1 -12 7 -23 26 -48 132 -68 180 -35 42 30 51 72 51 229
l0 145 -40 0 -40 0 0 -148z"/>
<path d="M2129 672 c-25 -22 -32 -37 -33 -68 -1 -58 24 -89 104 -129 71 -36
85 -56 58 -83 -19 -19 -73 -14 -101 8 -25 20 -28 20 -57 5 -29 -15 -30 -18
-18 -37 35 -53 145 -75 208 -43 33 17 60 61 60 97 0 44 -37 87 -105 120 -65
33 -79 46 -69 73 10 25 44 29 68 6 l22 -20 29 24 30 25 -28 25 c-23 20 -39 25
-82 25 -46 0 -60 -5 -86 -28z"/>
</g>
</svg>
